<?xml version="1.0" encoding="utf-16"?>
<svg width="32" height="32" viewBox="0 0 32 32" fill="none" xmlns="http://www.w3.org/2000/svg">
  <g id="emoji_objects">
    <mask id="mask0_208_4228" style="mask-type:alpha" maskUnits="userSpaceOnUse" x="0" y="0" width="32" height="32">
      <rect id="Bounding box" width="32" height="32" fill="#D9D9D9" />
    </mask>
    <g mask="url(#mask0_208_4228)">
      <path id="emoji_objects_2" d="M16 27.923C15.4649 27.923 14.9918 27.782 14.5807 27.4999C14.1696 27.2179 13.882 26.8478 13.7179 26.3896H13.3333C12.788 26.3896 12.3184 26.1926 11.9244 25.7986C11.5303 25.4046 11.3333 24.935 11.3333 24.3897V20.0154C9.98804 19.2 8.9295 18.1068 8.1577 16.7359C7.3859 15.3649 7 13.8974 7 12.3333C7 9.82396 7.87264 7.69662 9.61793 5.95131C11.3632 4.20602 13.4906 3.33337 16 3.33337C18.5093 3.33337 20.6367 4.20602 22.382 5.95131C24.1273 7.69662 24.9999 9.82396 24.9999 12.3333C24.9999 13.9248 24.614 15.3991 23.8422 16.7564C23.0704 18.1137 22.0119 19.2 20.6666 20.0154V24.3897C20.6666 24.935 20.4696 25.4046 20.0756 25.7986C19.6816 26.1926 19.2119 26.3896 18.6666 26.3896H18.282C18.1179 26.8478 17.8303 27.2179 17.4192 27.4999C17.0081 27.782 16.535 27.923 16 27.923ZM13.3333 24.3897H18.6666V23.1384H13.3333V24.3897ZM13.3333 21.9589H18.6666V20.6666H13.3333V21.9589ZM13.0666 18.6667H15.2051V14.7846L12.9077 12.4872C12.7504 12.3299 12.6696 12.1457 12.6654 11.9346C12.6611 11.7235 12.7419 11.535 12.9077 11.3692C13.0735 11.2034 13.2598 11.1205 13.4666 11.1205C13.6735 11.1205 13.8598 11.2034 14.0256 11.3692L16 13.3436L17.9743 11.3692C18.1316 11.212 18.3158 11.1312 18.5269 11.1269C18.738 11.1227 18.9264 11.2034 19.0923 11.3692C19.2581 11.535 19.341 11.7214 19.341 11.9282C19.341 12.135 19.2581 12.3214 19.0923 12.4872L16.7948 14.7846V18.6667H18.9333C20.1333 18.0889 21.1111 17.2389 21.8666 16.1167C22.6222 14.9945 23 13.7333 23 12.3333C23 10.3778 22.3222 8.72223 20.9666 7.36667C19.6111 6.01112 17.9555 5.33334 16 5.33334C14.0444 5.33334 12.3889 6.01112 11.0333 7.36667C9.67774 8.72223 8.99997 10.3778 8.99997 12.3333C8.99997 13.7333 9.37774 14.9945 10.1333 16.1167C10.8889 17.2389 11.8666 18.0889 13.0666 18.6667Z" fill="white" />
    </g>
  </g>
</svg>