<?xml version="1.0" encoding="utf-16"?>
<svg width="32" height="32" viewBox="0 0 32 32" fill="none" xmlns="http://www.w3.org/2000/svg">
  <g id="two_pager">
    <mask id="mask0_2553_9363" style="mask-type:alpha" maskUnits="userSpaceOnUse" x="0" y="0" width="32" height="32">
      <rect id="Bounding box" width="32" height="32" fill="#D9D9D9" />
    </mask>
    <g mask="url(#mask0_2553_9363)">
      <path id="two_pager_2" d="M5.94867 25.3333C5.40244 25.3333 4.94111 25.1451 4.56467 24.7686C4.18822 24.3922 4 23.9308 4 23.3846V8.61529C4 8.06907 4.18822 7.60774 4.56467 7.23129C4.94111 6.85485 5.40244 6.66663 5.94867 6.66663H26.0513C26.5976 6.66663 27.0589 6.85485 27.4353 7.23129C27.8118 7.60774 28 8.06907 28 8.61529V23.3846C28 23.9308 27.8118 24.3922 27.4353 24.7686C27.0589 25.1451 26.5976 25.3333 26.0513 25.3333H5.94867ZM5.94867 24.205H15.436V7.79496H5.94867C5.74356 7.79496 5.55556 7.8804 5.38467 8.05129C5.21378 8.22218 5.12833 8.41018 5.12833 8.61529V23.3846C5.12833 23.5897 5.21378 23.7777 5.38467 23.9486C5.55556 24.1195 5.74356 24.205 5.94867 24.205ZM16.564 24.205H26.0513C26.2564 24.205 26.4444 24.1195 26.6153 23.9486C26.7862 23.7777 26.8717 23.5897 26.8717 23.3846V8.61529C26.8717 8.41018 26.7862 8.22218 26.6153 8.05129C26.4444 7.8804 26.2564 7.79496 26.0513 7.79496H16.564V24.205ZM7.077 20.699H13.4873V19.571H7.077V20.699ZM7.077 16.6016H13.4873V15.4736H7.077V16.6016ZM7.077 12.5043H13.4873V11.376H7.077V12.5043ZM18.5127 20.699H24.923V19.571H18.5127V20.699ZM18.5127 16.6016H24.923V15.4736H18.5127V16.6016ZM18.5127 12.5043H24.923V11.376H18.5127V12.5043Z" fill="#B2AA98" />
    </g>
  </g>
</svg>