<?xml version="1.0" encoding="UTF-8"?>
<svg id="Layer_1" xmlns="http://www.w3.org/2000/svg" viewBox="0 0 160 144">
  <defs>
    <style>
      .cls-1 {
        fill: none;
        stroke: #5d80c0;
        stroke-linecap: round;
        stroke-linejoin: round;
        stroke-width: 3.5px;
      }
    </style>
  </defs>
  <path class="cls-1" d="M96.65,48.43c3.88-6.04,9.24-9.77,15.15-9.77,11.84,0,21.43,14.93,21.43,33.34s-9.6,33.34-21.43,33.34-21.43-14.92-21.43-33.34c0-4.15.49-8.12,1.38-11.79M47.88,105.34c-12,.31-21.8-14.73-21.8-33.34s9.8-33.66,21.8-33.34M76.71,98.19c-4.34,7.33-10.48,11.91-17.29,11.91-13.15,0-23.82-17.06-23.82-38.1,0-4.38.46-8.59,1.31-12.51M40.56,48.73c4.35-9.03,11.18-14.83,18.86-14.83,6.8,0,12.95,4.57,17.29,11.9M114.19,64.86c-3.95,0-4.77,3.19-4.77,7.14s.82,7.14,4.77,7.14h2.38c3.94,0,5.95-3.2,5.95-7.14s-2.01-7.14-5.95-7.14h-2.38ZM73.7,79.14h-14.28c-3.95,0-4.77-3.2-4.77-7.14s.82-7.14,4.77-7.14h14.28" />
  <path class="cls-1" d="M115.58,105.34c-3.59,3.03-7.72,4.76-12.11,4.76-13.81,0-25-17.06-25-38.1s11.19-38.1,25-38.1c4.32,0,8.38,1.67,11.92,4.6" />
</svg>