<?xml version="1.0" encoding="UTF-8"?>
<svg id="Layer_1" xmlns="http://www.w3.org/2000/svg" version="1.1" viewBox="0 0 160 144">
  <defs>
    <style>
      .st0 {
        stroke-linecap: round;
      }

      .st0, .st1 {
        fill: none;
        stroke: #004536;
        stroke-linejoin: round;
        stroke-width: 2.81px;
      }
    </style>
  </defs>
  <path class="st1" d="M103.79,70.91c0,15-12.11,27.16-27.04,27.16s-27.04-12.16-27.04-27.16,12.11-27.17,27.04-27.17,27.04,12.16,27.04,27.17ZM32.7,50.57c-.82,4.95-2.45,23.6-2.45,23.6l4.33,4.35v21.73c0,2.25,1.64,4.34,4.33,4.34s4.33-1.83,4.33-4.07v-57.85s0-2.72-3.24-2.72-6.42,5.43-7.29,10.63ZM129.75,39.41v21.73c0,4.63-4.18,5.98-6.49,6.52l2.16,32.6c0,1.86-.54,4.34-5.41,4.34s-5.41-2.48-5.41-4.34l2.16-32.6c-2.31-.54-6.49-1.89-6.49-6.52v-21.73M123.26,39.41v15.21M116.77,39.41v15.21" />
  <path class="st0" d="M91.26,59.04c2.61,3.22,4.17,7.32,4.17,11.79,0,10.35-8.39,18.74-18.74,18.74-4.58,0-8.77-1.64-12.03-4.37" />
</svg>