<?xml version="1.0" encoding="UTF-8"?>
<svg id="Layer_1" xmlns="http://www.w3.org/2000/svg" version="1.1" viewBox="0 0 1080 1080">
  <path d="M292.45,309.83c54.43,0,98.77,44.34,98.77,98.77s-44.34,98.74-98.77,98.74-98.77-44.28-98.77-98.74,44.34-98.77,98.77-98.77M292.45,536.34c70.45,0,127.75-57.29,127.75-127.75s-57.29-127.75-127.75-127.75-127.75,57.29-127.75,127.75,57.29,127.75,127.75,127.75" />
  <path d="M712.82,851.27c35.89-29.47,80.31-45.49,127.14-45.49h45.09c46.79,0,91.25,16.02,127.17,45.49h-299.39ZM718.48,376.32c-5.58-7.52-16.28-9.23-23.89-3.7-17.01,12.35-88.67,68.6-87.86,140.38-23.46-32.83-40.17-80.6.93-130.84,4.89-6.02,5.18-14.58.61-20.88-4.51-6.28-12.73-8.76-19.98-5.99-21.63,8.3-67.07,27.88-96.48,56.25-.35-47.84,13.19-122.92,98.97-135.76,6.68-.95,12.2-5.81,14.06-12.32,1.82-6.45-.32-13.36-5.44-17.67-10.82-9.05-44.8-34.21-93.21-37.63,37.22-26.93,99.49-56.37,154.56-8.59,4.02,3.5,9.28,4.95,14.52,3.96,5.12-1.01,9.49-4.25,11.89-8.88,7.66-14.75,47.14-82.86,117.25-73.43-17.12,23.08-36.24,54.49-33.35,76.73.69,5.41,3.9,10.18,8.59,12.84,4.66,2.63,10.38,2.92,15.27.78,17.76-7.84,103.39-40.55,171.04,20.24-46.56.93-106.05,5.81-125.89,23.89-4.28,3.9-6.33,9.69-5.35,15.44.93,5.76,4.66,10.59,10.01,12.93,17.06,7.52,95.32,45.32,102.5,107.1-43.99-27.85-131.07-73.6-184.08-39.54-3.85,2.46-6.51,6.33-7.49,10.85-.95,4.48-.09,9.23,2.43,13.01,15.21,23.14,145.97,228.25,129.83,401.28-.95,0-1.88-.09-2.86-.09h-45.09c-5.99,0-11.97.32-17.87.78,28.11-214.77-89.77-382.43-103.6-401.2M1047.81,844.47c-36.01-36.04-81.67-58.68-131.01-65.48,15.1-165.78-94.75-355.88-127.17-407.85,42.98-13.19,118.49,27.59,159.21,56.02,4.89,3.44,11.16,4.05,16.66,1.62,5.52-2.43,9.34-7.4,10.15-13.36,10.3-74.85-56.83-124.13-96.13-146.14,24.12-5.67,65.71-8.99,113.54-8.53,6.68.09,12.61-3.62,15.56-9.69,2.89-5.93,2.08-13.16-2.08-18.28-67.82-84.02-159.21-69.06-202.51-55.44,6.25-14.11,18.71-33.4,34.5-52.69,3.62-4.4,4.77-10.35,3.09-15.82-1.65-5.52-5.93-9.8-11.45-11.45-88.21-26.69-141.71,39.74-161.61,71.52-69.9-49.8-152.79-13.04-208.93,40.35-5.47,5.21-6.85,13.25-3.5,20.01,3.35,6.74,10.64,10.47,18.1,9.25,36.12-5.93,65.71,4.42,85,14.98-83.76,27.24-104.26,114.38-94.02,192.01.95,7.43,6.57,13.3,13.94,14.63,7.4,1.3,14.69-2.34,18.16-9.02,11.34-21.92,41.24-40.66,66.55-53.36-36.06,79.97,29.9,148.8,53.5,170,6.16,5.52,15.13,5.9,21.72.93,6.62-4.97,8.76-13.62,5.18-21.05-30.34-63.28,30.37-121.9,57.87-144.17,28.11,41.73,117.68,192.12,90.09,378.32-43.21,9.14-82.95,30.6-114.96,62.7-6.02,6.02-7.78,14.98-4.54,22.85s10.85,12.93,19.32,12.93h341.01c8.47,0,16.08-5.06,19.32-12.93,3.27-7.87,1.5-16.83-4.51-22.85" />
  <path d="M540.27,824.43h-19.09l13.3-43.44c3.38,14.11,5.32,28.63,5.78,43.44M449.66,959.09c-.23.72-.93,1.24-1.74,1.24H153.94c-.81,0-1.5-.49-1.74-1.24l-37.63-123.03c-.12-.55-.32-1.07-.49-1.59l-31.84-104.09c-.12-.26-.14-.58-.26-.84l-9.89-32.33c-.09-.2-.26-.84.26-1.59s1.19-.72,1.42-.72h454.27c.23,0,.9,0,1.42.72s.35,1.39.26,1.59l-9.89,32.33c-.12.26-.14.55-.23.81l-31.87,104.15c-.2.49-.38,1.04-.49,1.59l-37.63,123.03.06-.03ZM61.62,824.43c.46-14.81,2.4-29.33,5.78-43.44l13.3,43.44h-19.09ZM276.94,615.59h48.01c50.7,0,99.37,18.02,137.9,50.32H139.08c38.49-32.31,87.2-50.32,137.9-50.32M557.51,705.68c2.89-9.43,1.19-19.41-4.71-27.3-5.87-7.95-14.87-12.47-24.73-12.47h-23.48c-46.3-50.44-111.35-79.27-179.63-79.27h-48.01c-68.28,0-133.33,28.86-179.63,79.27h-23.48c-9.89,0-18.91,4.51-24.73,12.47-5.9,7.9-7.61,17.87-4.71,27.3l8.59,28.11c-13.51,30.6-20.45,63.22-20.45,97.18v7.95c0,7.98,6.48,14.52,14.52,14.52h42.54l34.91,114.09c3.96,13.04,15.82,21.81,29.44,21.81h293.98c13.62,0,25.45-8.76,29.44-21.81l34.91-114.09h42.54c8.01,0,14.52-6.51,14.52-14.52v-7.95c0-33.95-6.94-66.61-20.45-97.18l8.59-28.11h.03Z" />
  <path d="M323.25,847.07h-50.27v-61.6h50.27v61.6ZM328.34,756.49h-60.45c-13.19,0-23.92,10.73-23.92,23.89v71.81c0,13.19,10.73,23.92,23.92,23.92h60.45c13.16,0,23.89-10.73,23.89-23.92v-71.81c0-13.16-10.73-23.89-23.89-23.89" />
</svg>